<svg height="350" viewbox="0 0 700 350" width="700" xmlns="http://www.w3.org/2000/svg">
  <rect fill="white" width="700" height="350"/>

  <text fill="#1a1a2e" font-family="Microsoft YaHei" font-size="22" font-weight="bold" text-anchor="middle" x="350" y="35">跨平台本地库加载架构</text>

  <rect fill="#512bd4" rx="8" x="250" y="55" width="200" height="45"/>
  <text fill="white" font-family="Microsoft YaHei" font-size="16" text-anchor="middle" x="350" y="82">.NET 应用</text>

  <path d="M350,100 L350,120" stroke="#512bd4" stroke-width="2"/>

  <rect fill="#f5f5f5" stroke="#ccc" rx="6" x="250" y="125" width="200" height="40"/>
  <text fill="#333" font-family="Microsoft YaHei" font-size="14" text-anchor="middle" x="350" y="152">DllImport / NativeLibrary</text>

  <path d="M350,165 L350,180" stroke="#512bd4" stroke-width="2"/>

  <text fill="#666" font-family="Microsoft YaHei" font-size="11" text-anchor="middle" x="350" y="200">平台特定加载机制</text>

  <rect fill="#0078d4" rx="8" x="80" y="215" width="220" height="55"/>
  <text fill="white" font-family="Microsoft YaHei" font-size="15" font-weight="bold" text-anchor="middle" x="190" y="240">Windows</text>
  <text fill="white" font-family="Microsoft YaHei" font-size="11" text-anchor="middle" x="190" y="260">LoadLibrary 搜索路径</text>

  <rect fill="#e95420" rx="8" x="400" y="215" width="220" height="55"/>
  <text fill="white" font-family="Microsoft YaHei" font-size="15" font-weight="bold" text-anchor="middle" x="510" y="240">Linux</text>
  <text fill="white" font-family="Microsoft YaHei" font-size="11" text-anchor="middle" x="510" y="260">dlopen 搜索路径</text>

  <path d="M190,270 L190,290" stroke="#0078d4" stroke-width="2"/>
  <path d="M510,270 L510,290" stroke="#e95420" stroke-width="2"/>

  <rect fill="#e3f2fd" stroke="#0078d4" stroke-width="2" rx="6" x="95" y="295" width="90" height="35"/>
  <text fill="#0078d4" font-family="Consolas" font-size="12" text-anchor="middle" x="140" y="318">.dll</text>

  <rect fill="#fce4d6" stroke="#e95420" stroke-width="2" rx="6" x="415" y="295" width="90" height="35"/>
  <text fill="#c8410f" font-family="Consolas" font-size="12" text-anchor="middle" x="460" y="318">.so</text>
</svg>