<svg xmlns="http://www.w3.org/2000/svg" viewBox="0 0 512 512" role="img" aria-label="CodeWF logo">
  <defs>
    <linearGradient id="codewf-bg" x1="88" y1="54" x2="432" y2="462" gradientUnits="userSpaceOnUse">
      <stop offset="0" stop-color="#FF3F6C"/>
      <stop offset="0.56" stop-color="#EF3F7A"/>
      <stop offset="1" stop-color="#6D5DFC"/>
    </linearGradient>
    <linearGradient id="codewf-flow" x1="138" y1="164" x2="360" y2="350" gradientUnits="userSpaceOnUse">
      <stop offset="0" stop-color="#FFFFFF"/>
      <stop offset="1" stop-color="#FFF2F6"/>
    </linearGradient>
    <filter id="codewf-shadow" x="-20%" y="-20%" width="140%" height="140%" color-interpolation-filters="sRGB">
      <feDropShadow dx="0" dy="24" stdDeviation="24" flood-color="#7C2D5E" flood-opacity="0.24"/>
    </filter>
  </defs>
  <rect x="36" y="36" width="440" height="440" rx="112" fill="url(#codewf-bg)" filter="url(#codewf-shadow)"/>
  <path d="M342 159c-24-25-56-39-92-39-74 0-134 60-134 136s60 136 134 136c38 0 72-16 97-42" fill="none" stroke="url(#codewf-flow)" stroke-width="58" stroke-linecap="round"/>
  <path d="M235 200l-52 56 52 56" fill="none" stroke="#FFFFFF" stroke-width="32" stroke-linecap="round" stroke-linejoin="round" opacity="0.92"/>
  <path d="M277 200l52 56-52 56" fill="none" stroke="#FFFFFF" stroke-width="32" stroke-linecap="round" stroke-linejoin="round" opacity="0.92"/>
  <path d="M271 186l-35 140" fill="none" stroke="#FFF7FA" stroke-width="28" stroke-linecap="round" opacity="0.88"/>
  <circle cx="366" cy="146" r="28" fill="#FFB84D"/>
</svg>
