<svg xmlns="http://www.w3.org/2000/svg" width="960" height="360" viewBox="0 0 960 360" role="img" aria-labelledby="title desc">
  <title id="title">CodeWF.EventBus project cover</title>
  <desc id="desc">Cover card for the in-process event bus project.</desc>
  <defs>
    <linearGradient id="bg" x1="0" y1="0" x2="1" y2="1">
      <stop offset="0" stop-color="#111827"/>
      <stop offset="1" stop-color="#312e81"/>
    </linearGradient>
    <pattern id="grid" width="44" height="44" patternUnits="userSpaceOnUse">
      <path d="M44 0H0V44" fill="none" stroke="#ffffff" stroke-opacity=".08"/>
    </pattern>
  </defs>
  <rect width="960" height="360" fill="url(#bg)"/>
  <rect width="960" height="360" fill="url(#grid)"/>
  <rect x="72" y="64" width="12" height="232" rx="6" fill="#818cf8"/>
  <g transform="translate(644 74)" fill="none" stroke="#c4b5fd" stroke-width="6" stroke-linecap="round" stroke-linejoin="round" opacity=".95">
    <path d="M42 96a54 54 0 1 1 108 0 54 54 0 0 1-108 0z"/>
    <path d="M96 42v108M42 96h108"/>
    <path d="M10 96h32M150 96h34M96 10v32M96 150v34"/>
  </g>
  <text x="112" y="138" fill="#f8fafc" font-family="Segoe UI, Arial, sans-serif" font-size="48" font-weight="700" letter-spacing="0">CodeWF.EventBus</text>
  <text x="112" y="190" fill="#ddd6fe" font-family="Segoe UI, Arial, sans-serif" font-size="24" letter-spacing="0">In-process event bus with Command and Query</text>
  <text x="112" y="236" fill="#ede9fe" font-family="Segoe UI, Arial, sans-serif" font-size="20" letter-spacing="0">MS.DI, DryIoc, generic IOC, desktop and web apps</text>
  <rect x="112" y="266" width="128" height="34" rx="6" fill="#6366f1" opacity=".95"/>
  <text x="132" y="289" fill="#ffffff" font-family="Segoe UI, Arial, sans-serif" font-size="16" font-weight="600" letter-spacing="0">Event Bus</text>
</svg>
