<svg xmlns="http://www.w3.org/2000/svg" width="1200" height="630" viewBox="0 0 1200 630" role="img" aria-labelledby="title desc">
  <title id="title">Blazor mini games cover</title>
  <desc id="desc">A Blazor component and minesweeper board themed cover for a mini games article.</desc>
  <defs>
    <linearGradient id="bg" x1="0" y1="0" x2="1" y2="1">
      <stop offset="0" stop-color="#1e1b4b"/>
      <stop offset="0.56" stop-color="#5b21b6"/>
      <stop offset="1" stop-color="#0f172a"/>
    </linearGradient>
    <linearGradient id="tile" x1="0" y1="0" x2="1" y2="1">
      <stop offset="0" stop-color="#ede9fe"/>
      <stop offset="1" stop-color="#c4b5fd"/>
    </linearGradient>
    <pattern id="grid" width="48" height="48" patternUnits="userSpaceOnUse">
      <path d="M48 0H0V48" fill="none" stroke="#ddd6fe" stroke-opacity="0.1" stroke-width="1"/>
    </pattern>
    <filter id="soft" x="-20%" y="-20%" width="140%" height="140%">
      <feDropShadow dx="0" dy="20" stdDeviation="22" flood-color="#020617" flood-opacity="0.35"/>
    </filter>
  </defs>
  <rect width="1200" height="630" fill="url(#bg)"/>
  <rect width="1200" height="630" fill="url(#grid)"/>
  <g transform="translate(98 102)" filter="url(#soft)">
    <rect x="0" y="0" width="448" height="448" rx="34" fill="#2e1065" stroke="#ddd6fe" stroke-opacity="0.42" stroke-width="3"/>
    <g transform="translate(42 42)" font-family="Segoe UI, Arial, sans-serif" font-size="34" font-weight="800" text-anchor="middle" dominant-baseline="central">
      <rect x="0" y="0" width="82" height="82" rx="14" fill="url(#tile)"/>
      <rect x="94" y="0" width="82" height="82" rx="14" fill="#7dd3fc"/>
      <rect x="188" y="0" width="82" height="82" rx="14" fill="url(#tile)"/>
      <rect x="282" y="0" width="82" height="82" rx="14" fill="#a7f3d0"/>
      <rect x="0" y="94" width="82" height="82" rx="14" fill="#fef3c7"/>
      <rect x="94" y="94" width="82" height="82" rx="14" fill="url(#tile)"/>
      <rect x="188" y="94" width="82" height="82" rx="14" fill="#fca5a5"/>
      <rect x="282" y="94" width="82" height="82" rx="14" fill="url(#tile)"/>
      <rect x="0" y="188" width="82" height="82" rx="14" fill="url(#tile)"/>
      <rect x="94" y="188" width="82" height="82" rx="14" fill="#a7f3d0"/>
      <rect x="188" y="188" width="82" height="82" rx="14" fill="url(#tile)"/>
      <rect x="282" y="188" width="82" height="82" rx="14" fill="#7dd3fc"/>
      <rect x="0" y="282" width="82" height="82" rx="14" fill="#7dd3fc"/>
      <rect x="94" y="282" width="82" height="82" rx="14" fill="url(#tile)"/>
      <rect x="188" y="282" width="82" height="82" rx="14" fill="#fef3c7"/>
      <rect x="282" y="282" width="82" height="82" rx="14" fill="url(#tile)"/>
      <text x="41" y="41" fill="#2563eb">1</text>
      <text x="135" y="135" fill="#16a34a">2</text>
      <text x="229" y="229" fill="#7c3aed">3</text>
      <path d="M220 120l13 27 30 4-22 21 5 30-26-14-26 14 5-30-22-21 30-4 13-27Z" fill="#450a0a"/>
    </g>
  </g>
  <g transform="translate(650 140)">
    <path d="M132 0c58 0 106 47 106 106v22h22c58 0 106 47 106 106s-48 106-106 106H132C74 340 26 293 26 234v-22H4c-58 0-106-47-106-106S-54 0 4 0h128Z" fill="#7c3aed" opacity="0.86"/>
    <path d="M116 58c28-32 80-30 106 6 28-18 66-10 84 18" fill="none" stroke="#f5f3ff" stroke-width="16" stroke-linecap="round"/>
    <path d="M54 198h206M116 136v206" stroke="#c4b5fd" stroke-width="16" stroke-linecap="round"/>
    <circle cx="302" cy="198" r="28" fill="#fef3c7"/>
    <circle cx="360" cy="256" r="28" fill="#a7f3d0"/>
  </g>
  <g font-family="Segoe UI, Arial, sans-serif" fill="#faf5ff">
    <text x="650" y="470" font-size="34" font-weight="700" letter-spacing="4">BLAZOR LAB</text>
    <text x="650" y="532" font-size="60" font-weight="800">Mini Games</text>
    <text x="650" y="582" font-size="34" font-weight="600" fill="#ddd6fe">Components, tools, minesweeper</text>
  </g>
</svg>
