<svg xmlns="http://www.w3.org/2000/svg" width="1200" height="675" viewBox="0 0 1200 675" role="img" aria-labelledby="title desc">
  <title id="title">CodeWF Avalonia Guide control</title>
  <desc id="desc">Cover image for an article introducing the CodeWF Avalonia Guide onboarding control with overlay masks, popup positioning, menu item highlighting, and TabItem switching in Vex.</desc>
  <defs>
    <linearGradient id="bg" x1="0" y1="0" x2="1" y2="1">
      <stop offset="0" stop-color="#f8fbff"/>
      <stop offset="0.54" stop-color="#eff7ff"/>
      <stop offset="1" stop-color="#f6fbf8"/>
    </linearGradient>
    <linearGradient id="accent" x1="0" y1="0" x2="1" y2="1">
      <stop offset="0" stop-color="#2563eb"/>
      <stop offset="1" stop-color="#10b981"/>
    </linearGradient>
    <linearGradient id="menuPanel" x1="0" y1="0" x2="0" y2="1">
      <stop offset="0" stop-color="#172033"/>
      <stop offset="1" stop-color="#111827"/>
    </linearGradient>
    <linearGradient id="guideBadge" x1="0" y1="0" x2="1" y2="1">
      <stop offset="0" stop-color="#dbeafe"/>
      <stop offset="1" stop-color="#dcfce7"/>
    </linearGradient>
    <filter id="softShadow" x="-10%" y="-12%" width="120%" height="124%">
      <feDropShadow dx="0" dy="18" stdDeviation="20" flood-color="#0f172a" flood-opacity="0.15"/>
    </filter>
    <filter id="cardShadow" x="-18%" y="-22%" width="136%" height="144%">
      <feDropShadow dx="0" dy="16" stdDeviation="17" flood-color="#0f172a" flood-opacity="0.22"/>
    </filter>
    <filter id="glow" x="-36%" y="-52%" width="172%" height="204%">
      <feDropShadow dx="0" dy="0" stdDeviation="7" flood-color="#60a5fa" flood-opacity="0.7"/>
    </filter>
  </defs>

  <rect width="1200" height="675" fill="url(#bg)"/>
  <path d="M0 540 C142 506 256 586 418 552 C580 518 658 448 810 472 C968 498 1046 580 1200 532 L1200 675 L0 675 Z" fill="#dbeafe" opacity="0.78"/>
  <path d="M0 588 C164 558 302 618 456 594 C620 568 740 510 900 538 C1030 560 1104 612 1200 580 L1200 675 L0 675 Z" fill="#d1fae5" opacity="0.72"/>

  <text x="78" y="76" font-family="Segoe UI, Microsoft YaHei UI, sans-serif" font-size="23" font-weight="800" fill="#0f172a">CodeWF.AvaloniaControls</text>
  <text x="78" y="122" font-family="Segoe UI, Microsoft YaHei UI, sans-serif" font-size="48" font-weight="850" fill="#0f172a">Guide 引导控件</text>
  <text x="80" y="160" font-family="Segoe UI, Microsoft YaHei UI, sans-serif" font-size="21" fill="#475569">菜单弹层、高亮遮罩、Tab 切换与 Vex 新手引导落地</text>

  <g filter="url(#cardShadow)">
    <rect x="844" y="58" width="280" height="84" rx="22" fill="url(#guideBadge)" stroke="#bfdbfe"/>
    <circle cx="888" cy="100" r="24" fill="#ffffff" stroke="#93c5fd" stroke-width="3"/>
    <path d="M878 101 l8 8 l18 -22" fill="none" stroke="#2563eb" stroke-width="5" stroke-linecap="round" stroke-linejoin="round"/>
    <text x="928" y="92" font-family="Segoe UI, Microsoft YaHei UI, sans-serif" font-size="18" font-weight="800" fill="#0f172a">Onboarding Tour</text>
    <text x="928" y="120" font-family="Segoe UI, Microsoft YaHei UI, sans-serif" font-size="15" fill="#475569">Popup · Mask · MenuItem</text>
  </g>

  <g filter="url(#softShadow)">
    <rect x="72" y="188" width="1056" height="346" rx="26" fill="#ffffff" stroke="#cbd8e6"/>
    <rect x="72" y="188" width="1056" height="54" rx="26" fill="#f8fafc"/>
    <rect x="72" y="220" width="1056" height="22" fill="#f8fafc"/>
    <circle cx="106" cy="215" r="7" fill="#ef4444"/>
    <circle cx="130" cy="215" r="7" fill="#f59e0b"/>
    <circle cx="154" cy="215" r="7" fill="#22c55e"/>
    <text x="184" y="223" font-family="Segoe UI, Microsoft YaHei UI, sans-serif" font-size="18" font-weight="700" fill="#111827">Vex</text>

    <text x="252" y="223" font-family="Segoe UI, Microsoft YaHei UI, sans-serif" font-size="15" font-weight="700" fill="#111827">文件(F)</text>
    <text x="332" y="223" font-family="Segoe UI, Microsoft YaHei UI, sans-serif" font-size="15" font-weight="700" fill="#111827">编辑(E)</text>
    <text x="414" y="223" font-family="Segoe UI, Microsoft YaHei UI, sans-serif" font-size="15" font-weight="700" fill="#111827">段落(P)</text>
    <rect x="494" y="202" width="76" height="28" rx="8" fill="#dbeafe"/>
    <text x="512" y="223" font-family="Segoe UI, Microsoft YaHei UI, sans-serif" font-size="15" font-weight="800" fill="#1d4ed8">格式(O)</text>
    <text x="594" y="223" font-family="Segoe UI, Microsoft YaHei UI, sans-serif" font-size="15" font-weight="700" fill="#111827">视图(V)</text>
    <text x="674" y="223" font-family="Segoe UI, Microsoft YaHei UI, sans-serif" font-size="15" font-weight="700" fill="#111827">帮助(H)</text>
    <text x="990" y="223" font-family="Segoe UI, Microsoft YaHei UI, sans-serif" font-size="15" fill="#64748b">guide-demo.md</text>

    <rect x="72" y="242" width="270" height="292" fill="#f8fafc"/>
    <line x1="342" y1="242" x2="342" y2="534" stroke="#d8e3ef"/>
    <line x1="730" y1="242" x2="730" y2="534" stroke="#d8e3ef"/>
    <rect x="96" y="264" width="50" height="28" rx="7" fill="#ffffff" stroke="#d8e3ef"/>
    <text x="109" y="283" font-family="Segoe UI, Microsoft YaHei UI, sans-serif" font-size="14" font-weight="800" fill="#1d4ed8">文件</text>
    <text x="162" y="283" font-family="Segoe UI, Microsoft YaHei UI, sans-serif" font-size="14" fill="#64748b">大纲</text>
    <rect x="96" y="320" width="190" height="12" rx="6" fill="#dbe5ef"/>
    <rect x="96" y="352" width="152" height="12" rx="6" fill="#dbe5ef"/>
    <rect x="96" y="384" width="178" height="12" rx="6" fill="#dbe5ef"/>

    <text x="382" y="286" font-family="Segoe UI, Microsoft YaHei UI, sans-serif" font-size="17" font-weight="800" fill="#ef4444"># 新手引导</text>
    <text x="382" y="328" font-family="Segoe UI, Microsoft YaHei UI, sans-serif" font-size="18" fill="#111827">点击菜单后高亮目标控件。</text>
    <rect x="382" y="366" width="286" height="12" rx="6" fill="#e2e8f0"/>
    <rect x="382" y="398" width="236" height="12" rx="6" fill="#e2e8f0"/>
    <rect x="382" y="430" width="304" height="12" rx="6" fill="#e2e8f0"/>

    <text x="872" y="302" text-anchor="middle" font-family="Segoe UI, Microsoft YaHei UI, sans-serif" font-size="39" font-weight="850" fill="#334155">新手引导</text>
    <text x="872" y="348" text-anchor="middle" font-family="Segoe UI, Microsoft YaHei UI, sans-serif" font-size="19" fill="#334155">菜单、弹层、侧栏与预览区</text>
    <rect x="778" y="390" width="190" height="12" rx="6" fill="#e2e8f0"/>
    <rect x="778" y="422" width="246" height="12" rx="6" fill="#e2e8f0"/>
    <rect x="778" y="454" width="210" height="12" rx="6" fill="#e2e8f0"/>
  </g>

  <rect x="72" y="242" width="1056" height="292" fill="#0f172a" opacity="0.54"/>

  <g filter="url(#cardShadow)">
    <rect x="494" y="230" width="138" height="204" rx="12" fill="url(#menuPanel)"/>
    <text x="522" y="264" font-family="Segoe UI, Microsoft YaHei UI, sans-serif" font-size="15" fill="#cbd5e1">加粗</text>
    <text x="522" y="300" font-family="Segoe UI, Microsoft YaHei UI, sans-serif" font-size="15" fill="#cbd5e1">斜体</text>
    <text x="522" y="336" font-family="Segoe UI, Microsoft YaHei UI, sans-serif" font-size="15" fill="#cbd5e1">行内代码</text>
    <rect x="506" y="354" width="110" height="38" rx="8" fill="#ffffff"/>
    <text x="522" y="379" font-family="Segoe UI, Microsoft YaHei UI, sans-serif" font-size="15" font-weight="800" fill="#0f172a">链接</text>
    <text x="522" y="416" font-family="Segoe UI, Microsoft YaHei UI, sans-serif" font-size="15" fill="#cbd5e1">图片</text>
  </g>

  <rect x="503" y="350" width="118" height="46" rx="10" fill="none" stroke="#ffffff" stroke-width="3"/>
  <rect x="503" y="350" width="118" height="46" rx="10" fill="none" stroke="#60a5fa" stroke-width="5" opacity="0.92" filter="url(#glow)"/>

  <g filter="url(#cardShadow)">
    <path d="M632 374 L660 356 L660 392 Z" fill="#ffffff"/>
    <rect x="654" y="294" width="382" height="172" rx="18" fill="#ffffff" stroke="#dbe5ef"/>
    <text x="688" y="340" font-family="Segoe UI, Microsoft YaHei UI, sans-serif" font-size="26" font-weight="800" fill="#0f172a">文本格式</text>
    <text x="688" y="380" font-family="Segoe UI, Microsoft YaHei UI, sans-serif" font-size="18" fill="#475569">打开菜单后继续圈选 MenuItem，</text>
    <text x="688" y="408" font-family="Segoe UI, Microsoft YaHei UI, sans-serif" font-size="18" fill="#475569">弹层目标也能稳定定位。</text>
    <circle cx="694" cy="438" r="4" fill="#93c5fd"/>
    <circle cx="712" cy="438" r="4" fill="#93c5fd"/>
    <circle cx="730" cy="438" r="4" fill="#2563eb"/>
    <circle cx="748" cy="438" r="4" fill="#cbd5e1"/>
    <circle cx="766" cy="438" r="4" fill="#cbd5e1"/>
    <rect x="866" y="417" width="70" height="34" rx="8" fill="#eff6ff"/>
    <text x="887" y="439" font-family="Segoe UI, Microsoft YaHei UI, sans-serif" font-size="15" font-weight="800" fill="#2563eb">上一步</text>
    <rect x="942" y="417" width="70" height="34" rx="8" fill="url(#accent)"/>
    <text x="958" y="439" font-family="Segoe UI, Microsoft YaHei UI, sans-serif" font-size="15" font-weight="800" fill="#ffffff">下一步</text>
  </g>

  <g>
    <rect x="78" y="568" width="152" height="34" rx="17" fill="#ffffff" stroke="#bfdbfe"/>
    <text x="111" y="591" font-family="Segoe UI, Microsoft YaHei UI, sans-serif" font-size="16" font-weight="800" fill="#1d4ed8">遮罩高亮</text>
    <rect x="246" y="568" width="150" height="34" rx="17" fill="#ffffff" stroke="#bbf7d0"/>
    <text x="285" y="591" font-family="Segoe UI, Microsoft YaHei UI, sans-serif" font-size="16" font-weight="800" fill="#047857">Popup 定位</text>
    <rect x="412" y="568" width="156" height="34" rx="17" fill="#ffffff" stroke="#fed7aa"/>
    <text x="446" y="591" font-family="Segoe UI, Microsoft YaHei UI, sans-serif" font-size="16" font-weight="800" fill="#c2410c">MenuItem</text>
    <rect x="584" y="568" width="158" height="34" rx="17" fill="#ffffff" stroke="#ddd6fe"/>
    <text x="626" y="591" font-family="Segoe UI, Microsoft YaHei UI, sans-serif" font-size="16" font-weight="800" fill="#6d28d9">TabItem</text>
    <text x="820" y="608" font-family="Segoe UI, Microsoft YaHei UI, sans-serif" font-size="24" font-weight="850" fill="#0f172a">Vex 新手引导实战</text>
  </g>
</svg>
