<svg xmlns="http://www.w3.org/2000/svg" width="1200" height="675" viewBox="0 0 1200 675" role="img" aria-labelledby="title desc">
  <title id="title">CodeWF Toolbox - C# + Avalonia modular desktop toolbox</title>
  <desc id="desc">Cover image for an article introducing CodeWF Toolbox, Avalonia, Prism, modules, themes, localization, and cross-platform desktop development.</desc>
  <defs>
    <linearGradient id="bg" x1="0" y1="0" x2="1" y2="1">
      <stop offset="0" stop-color="#f6fbff"/>
      <stop offset="0.45" stop-color="#e9f7f8"/>
      <stop offset="1" stop-color="#f7fafc"/>
    </linearGradient>
    <linearGradient id="accent" x1="0" y1="0" x2="1" y2="1">
      <stop offset="0" stop-color="#1677ff"/>
      <stop offset="1" stop-color="#14b8a6"/>
    </linearGradient>
    <filter id="shadow" x="-20%" y="-20%" width="140%" height="140%">
      <feDropShadow dx="0" dy="24" stdDeviation="26" flood-color="#0f172a" flood-opacity="0.14"/>
    </filter>
  </defs>
  <rect width="1200" height="675" fill="url(#bg)"/>
  <path d="M0 560 C180 510 285 620 450 570 C610 522 680 420 850 460 C1015 499 1070 600 1200 536 L1200 675 L0 675 Z" fill="#dff4f4"/>
  <path d="M70 92 h1060 a32 32 0 0 1 32 32 v428 a32 32 0 0 1-32 32 H70 a32 32 0 0 1-32-32 V124 a32 32 0 0 1 32-32 Z" fill="#ffffff" stroke="#cbdceb" filter="url(#shadow)"/>
  <rect x="38" y="92" width="96" height="492" rx="32" fill="#eff7fb"/>
  <rect x="65" y="134" width="42" height="42" rx="12" fill="url(#accent)"/>
  <rect x="65" y="206" width="42" height="42" rx="12" fill="#d8edf5"/>
  <rect x="65" y="278" width="42" height="42" rx="12" fill="#d8edf5"/>
  <rect x="65" y="350" width="42" height="42" rx="12" fill="#d8edf5"/>
  <rect x="65" y="422" width="42" height="42" rx="12" fill="#d8edf5"/>
  <rect x="160" y="132" width="940" height="74" rx="18" fill="#f8fbfd" stroke="#d3e1ec"/>
  <rect x="180" y="151" width="36" height="36" rx="10" fill="#e3f4fb"/>
  <path d="M198 160 l14 11 v17 h-28 v-17 z" fill="none" stroke="#1677ff" stroke-width="4" stroke-linejoin="round"/>
  <text x="236" y="178" font-family="Segoe UI, Microsoft YaHei UI, sans-serif" font-size="24" font-weight="700" fill="#0f172a">CodeWF Toolbox</text>
  <rect x="160" y="242" width="520" height="190" rx="22" fill="#ffffff" stroke="#d3e1ec"/>
  <text x="192" y="292" font-family="Segoe UI, Microsoft YaHei UI, sans-serif" font-size="28" font-weight="800" fill="#0f172a">C# + Avalonia</text>
  <text x="192" y="332" font-family="Segoe UI, Microsoft YaHei UI, sans-serif" font-size="22" fill="#334155">模块化桌面工具箱实战</text>
  <text x="192" y="376" font-family="Segoe UI, Microsoft YaHei UI, sans-serif" font-size="18" fill="#475569">Prism 模块目录、Region 导航、主题、多语言、Linux 发布</text>
  <rect x="720" y="242" width="380" height="190" rx="22" fill="#effaf9" stroke="#bfe7e5"/>
  <text x="752" y="294" font-family="Segoe UI, Microsoft YaHei UI, sans-serif" font-size="64" font-weight="800" fill="#0f766e">117</text>
  <text x="865" y="298" font-family="Segoe UI, Microsoft YaHei UI, sans-serif" font-size="22" font-weight="700" fill="#0f172a">可用工具</text>
  <text x="752" y="354" font-family="Segoe UI, Microsoft YaHei UI, sans-serif" font-size="40" font-weight="800" fill="#1677ff">12</text>
  <text x="815" y="356" font-family="Segoe UI, Microsoft YaHei UI, sans-serif" font-size="22" font-weight="700" fill="#0f172a">功能模块</text>
  <rect x="160" y="464" width="940" height="76" rx="18" fill="#f8fbfd" stroke="#d3e1ec"/>
  <text x="192" y="511" font-family="Segoe UI, Microsoft YaHei UI, sans-serif" font-size="20" font-weight="700" fill="#1677ff">开发者日常效率工具</text>
  <text x="430" y="511" font-family="Segoe UI, Microsoft YaHei UI, sans-serif" font-size="20" font-weight="700" fill="#14b8a6">跨平台桌面 UI</text>
  <text x="650" y="511" font-family="Segoe UI, Microsoft YaHei UI, sans-serif" font-size="20" font-weight="700" fill="#b45309">可扩展模块架构</text>
  <text x="80" y="628" font-family="Segoe UI, Microsoft YaHei UI, sans-serif" font-size="18" fill="#475569">dotnet9.com · 2026/05</text>
</svg>
