<svg xmlns="http://www.w3.org/2000/svg" width="1200" height="675" viewBox="0 0 1200 675" role="img" aria-labelledby="title desc">
  <title id="title">CodeWF.Markdown - Avalonia Markdown viewer control</title>
  <desc id="desc">Cover image for an article introducing CodeWF.Markdown, an Avalonia Markdown rendering control with typography themes, code highlighting, image preview, math rendering, and incremental rendering.</desc>
  <defs>
    <linearGradient id="bg" x1="0" y1="0" x2="1" y2="1">
      <stop offset="0" stop-color="#f8fbff"/>
      <stop offset="0.58" stop-color="#eef7ff"/>
      <stop offset="1" stop-color="#f7fafc"/>
    </linearGradient>
    <linearGradient id="accent" x1="0" y1="0" x2="1" y2="1">
      <stop offset="0" stop-color="#006adc"/>
      <stop offset="1" stop-color="#f25f4c"/>
    </linearGradient>
    <linearGradient id="code" x1="0" y1="0" x2="1" y2="1">
      <stop offset="0" stop-color="#0f172a"/>
      <stop offset="1" stop-color="#1e293b"/>
    </linearGradient>
    <filter id="shadow" x="-20%" y="-20%" width="140%" height="140%">
      <feDropShadow dx="0" dy="24" stdDeviation="26" flood-color="#0f172a" flood-opacity="0.14"/>
    </filter>
  </defs>
  <rect width="1200" height="675" fill="url(#bg)"/>
  <path d="M0 548 C150 508 292 600 430 562 C578 522 656 438 814 466 C960 492 1058 582 1200 532 L1200 675 L0 675 Z" fill="#dcecff"/>
  <rect x="44" y="88" width="1112" height="488" rx="32" fill="#ffffff" stroke="#c9d8e8" filter="url(#shadow)"/>
  <rect x="44" y="88" width="1112" height="62" rx="32" fill="#f8fbfd"/>
  <circle cx="86" cy="119" r="8" fill="#ef4444"/>
  <circle cx="112" cy="119" r="8" fill="#f59e0b"/>
  <circle cx="138" cy="119" r="8" fill="#22c55e"/>
  <text x="178" y="128" font-family="Segoe UI, Microsoft YaHei UI, sans-serif" font-size="22" font-weight="700" fill="#0f172a">CodeWF.Markdown 示例</text>
  <rect x="78" y="178" width="322" height="340" rx="18" fill="#fbfdff" stroke="#d5e1ec"/>
  <text x="106" y="222" font-family="Consolas, Cascadia Mono, monospace" font-size="22" font-weight="700" fill="#006adc"># Markdown 输入</text>
  <text x="106" y="264" font-family="Consolas, Cascadia Mono, monospace" font-size="17" fill="#334155">## 代码与表格</text>
  <text x="106" y="302" font-family="Consolas, Cascadia Mono, monospace" font-size="16" fill="#64748b">```csharp</text>
  <text x="106" y="330" font-family="Consolas, Cascadia Mono, monospace" font-size="16" fill="#0f766e">MarkdownViewer.Render()</text>
  <text x="106" y="358" font-family="Consolas, Cascadia Mono, monospace" font-size="16" fill="#64748b">```</text>
  <text x="106" y="402" font-family="Consolas, Cascadia Mono, monospace" font-size="16" fill="#f25f4c">| 主题 | 尺寸 | 状态 |</text>
  <text x="106" y="430" font-family="Consolas, Cascadia Mono, monospace" font-size="16" fill="#64748b">| --- | --- | --- |</text>
  <text x="106" y="458" font-family="Consolas, Cascadia Mono, monospace" font-size="16" fill="#334155">| Basic | Normal | ok |</text>
  <rect x="430" y="178" width="356" height="340" rx="18" fill="#ffffff" stroke="#d5e1ec"/>
  <text x="462" y="228" font-family="Segoe UI, Microsoft YaHei UI, sans-serif" font-size="36" font-weight="800" fill="#f25f4c">Avalonia Markdown</text>
  <line x1="462" y1="250" x2="746" y2="250" stroke="#f25f4c" stroke-width="4"/>
  <text x="462" y="298" font-family="Segoe UI, Microsoft YaHei UI, sans-serif" font-size="21" fill="#0f172a">实时编辑预览、排版主题、代码高亮</text>
  <text x="462" y="338" font-family="Segoe UI, Microsoft YaHei UI, sans-serif" font-size="21" fill="#0f172a">图片预览、数学公式、增量渲染</text>
  <rect x="462" y="374" width="286" height="86" rx="12" fill="#fff5f3" stroke="#ffd6cf"/>
  <text x="486" y="410" font-family="Segoe UI, Microsoft YaHei UI, sans-serif" font-size="20" font-weight="700" fill="#0f172a">MarkdownViewer</text>
  <text x="486" y="440" font-family="Segoe UI, Microsoft YaHei UI, sans-serif" font-size="16" fill="#64748b">完整控件 + Lite 包线</text>
  <rect x="818" y="178" width="304" height="340" rx="18" fill="url(#code)" stroke="#243447"/>
  <text x="850" y="222" font-family="Segoe UI, Microsoft YaHei UI, sans-serif" font-size="20" font-weight="700" fill="#e2e8f0">覆盖能力</text>
  <text x="850" y="270" font-family="Segoe UI, Microsoft YaHei UI, sans-serif" font-size="18" fill="#93c5fd">Markdig AST</text>
  <text x="850" y="308" font-family="Segoe UI, Microsoft YaHei UI, sans-serif" font-size="18" fill="#fde68a">TextMateSharp</text>
  <text x="850" y="346" font-family="Segoe UI, Microsoft YaHei UI, sans-serif" font-size="18" fill="#86efac">SVG / Image</text>
  <text x="850" y="384" font-family="Segoe UI, Microsoft YaHei UI, sans-serif" font-size="18" fill="#fca5a5">CSharpMath</text>
  <text x="850" y="422" font-family="Segoe UI, Microsoft YaHei UI, sans-serif" font-size="18" fill="#c4b5fd">I18n JSON</text>
  <rect x="850" y="456" width="216" height="12" rx="6" fill="#334155"/>
  <rect x="850" y="456" width="154" height="12" rx="6" fill="url(#accent)"/>
  <text x="78" y="625" font-family="Segoe UI, Microsoft YaHei UI, sans-serif" font-size="18" fill="#475569">dotnet9.com · C# + Avalonia 12 · 2026/05</text>
  <text x="830" y="625" font-family="Segoe UI, Microsoft YaHei UI, sans-serif" font-size="24" font-weight="800" fill="#0f172a">本地桌面 Markdown 渲染控件</text>
</svg>
