<svg xmlns="http://www.w3.org/2000/svg" width="1200" height="630" viewBox="0 0 1200 630" role="img" aria-labelledby="title desc">
  <title id="title">CodeWF Avalonia Guide Control</title>
  <desc id="desc">A desktop onboarding guide card highlighting menu items and workspace panels.</desc>
  <defs>
    <linearGradient id="bg" x1="0" y1="0" x2="1" y2="1">
      <stop offset="0" stop-color="#102033"/>
      <stop offset="0.55" stop-color="#163B48"/>
      <stop offset="1" stop-color="#234336"/>
    </linearGradient>
    <linearGradient id="accent" x1="0" y1="0" x2="1" y2="1">
      <stop offset="0" stop-color="#39D0B4"/>
      <stop offset="1" stop-color="#72A7FF"/>
    </linearGradient>
    <filter id="shadow" x="-20%" y="-20%" width="140%" height="150%">
      <feDropShadow dx="0" dy="18" stdDeviation="18" flood-color="#000000" flood-opacity="0.28"/>
    </filter>
  </defs>
  <rect width="1200" height="630" fill="url(#bg)"/>
  <g opacity="0.22">
    <path d="M104 120H1096" stroke="#FFFFFF" stroke-width="1"/>
    <path d="M104 230H1096" stroke="#FFFFFF" stroke-width="1"/>
    <path d="M104 340H1096" stroke="#FFFFFF" stroke-width="1"/>
    <path d="M104 450H1096" stroke="#FFFFFF" stroke-width="1"/>
    <path d="M210 76V554" stroke="#FFFFFF" stroke-width="1"/>
    <path d="M476 76V554" stroke="#FFFFFF" stroke-width="1"/>
    <path d="M742 76V554" stroke="#FFFFFF" stroke-width="1"/>
    <path d="M1008 76V554" stroke="#FFFFFF" stroke-width="1"/>
  </g>
  <g filter="url(#shadow)">
    <rect x="142" y="124" width="916" height="420" rx="18" fill="#F8FAFC"/>
    <rect x="142" y="124" width="916" height="46" rx="18" fill="#E5E7EB"/>
    <rect x="142" y="150" width="916" height="20" fill="#E5E7EB"/>
    <circle cx="174" cy="147" r="7" fill="#EF4444"/>
    <circle cx="198" cy="147" r="7" fill="#F59E0B"/>
    <circle cx="222" cy="147" r="7" fill="#22C55E"/>
    <rect x="258" y="137" width="68" height="20" rx="5" fill="#CBD5E1"/>
    <rect x="342" y="137" width="72" height="20" rx="5" fill="#CBD5E1"/>
    <rect x="430" y="137" width="70" height="20" rx="5" fill="#CBD5E1"/>
    <rect x="166" y="194" width="202" height="326" rx="10" fill="#E2E8F0"/>
    <rect x="392" y="194" width="388" height="326" rx="10" fill="#FFFFFF" stroke="#D7DEE8"/>
    <rect x="804" y="194" width="230" height="326" rx="10" fill="#F1F5F9"/>
    <rect x="190" y="222" width="126" height="18" rx="4" fill="#94A3B8"/>
    <rect x="190" y="263" width="142" height="14" rx="4" fill="#CBD5E1"/>
    <rect x="190" y="292" width="116" height="14" rx="4" fill="#CBD5E1"/>
    <rect x="190" y="321" width="132" height="14" rx="4" fill="#CBD5E1"/>
    <rect x="422" y="230" width="210" height="18" rx="4" fill="#475569"/>
    <rect x="422" y="273" width="300" height="12" rx="4" fill="#CBD5E1"/>
    <rect x="422" y="300" width="260" height="12" rx="4" fill="#CBD5E1"/>
    <rect x="422" y="327" width="318" height="12" rx="4" fill="#CBD5E1"/>
    <rect x="836" y="230" width="154" height="16" rx="4" fill="#94A3B8"/>
    <rect x="836" y="272" width="132" height="12" rx="4" fill="#CBD5E1"/>
    <rect x="836" y="299" width="108" height="12" rx="4" fill="#CBD5E1"/>
  </g>
  <rect x="318" y="132" width="110" height="30" rx="8" fill="none" stroke="url(#accent)" stroke-width="4"/>
  <rect x="304" y="118" width="138" height="58" rx="13" fill="none" stroke="#FFFFFF" stroke-width="2" stroke-opacity="0.9"/>
  <g filter="url(#shadow)">
    <path d="M447 188L474 166L478 199Z" fill="#FFFFFF"/>
    <rect x="455" y="178" width="346" height="188" rx="14" fill="#FFFFFF"/>
    <rect x="455" y="178" width="346" height="188" rx="14" fill="none" stroke="#D7DEE8"/>
    <text x="485" y="225" fill="#0F172A" font-family="Segoe UI, Arial, sans-serif" font-size="28" font-weight="700">Guide 引导控件</text>
    <text x="485" y="264" fill="#475569" font-family="Segoe UI, Arial, sans-serif" font-size="18">动态菜单 · TabItem 切换 · MenuItem 高亮</text>
    <rect x="485" y="304" width="44" height="8" rx="4" fill="#39D0B4"/>
    <rect x="539" y="304" width="44" height="8" rx="4" fill="#CBD5E1"/>
    <rect x="593" y="304" width="44" height="8" rx="4" fill="#CBD5E1"/>
    <rect x="665" y="286" width="88" height="38" rx="8" fill="url(#accent)"/>
    <text x="694" y="311" fill="#FFFFFF" font-family="Segoe UI, Arial, sans-serif" font-size="16" font-weight="700">下一步</text>
  </g>
  <text x="120" y="588" fill="#B7F4E8" font-family="Segoe UI, Arial, sans-serif" font-size="22" font-weight="700">CodeWF.AvaloniaControls</text>
  <text x="860" y="588" fill="#D8E7FF" font-family="Segoe UI, Arial, sans-serif" font-size="20">Avalonia / C# / Vex</text>
</svg>
