<svg xmlns="http://www.w3.org/2000/svg" width="1200" height="675" viewBox="0 0 1200 675" role="img" aria-labelledby="title desc">
  <title id="title">Zhijian - Avalonia mind map editor</title>
  <desc id="desc">Cover image for an article introducing Zhijian, an Avalonia and AtomUI mind map editor with outline, Markdown, notes, drag and drop, and mini map.</desc>
  <defs>
    <linearGradient id="bg" x1="0" y1="0" x2="1" y2="1">
      <stop offset="0" stop-color="#f8fafc"/>
      <stop offset="1" stop-color="#e0f2fe"/>
    </linearGradient>
    <filter id="shadow" x="-20%" y="-30%" width="140%" height="170%">
      <feDropShadow dx="0" dy="14" stdDeviation="18" flood-color="#0f172a" flood-opacity="0.15"/>
    </filter>
  </defs>
  <rect width="1200" height="675" fill="url(#bg)"/>
  <rect x="86" y="86" width="1028" height="504" rx="24" fill="#ffffff" filter="url(#shadow)"/>
  <rect x="114" y="122" width="334" height="420" rx="12" fill="#f8fafc" stroke="#dbe5ef"/>
  <rect x="482" y="122" width="604" height="420" rx="12" fill="#f8fafc" stroke="#dbe5ef"/>
  <text x="142" y="172" font-family="Segoe UI, Microsoft YaHei UI, sans-serif" font-size="32" font-weight="800" fill="#0f172a">枝见 Zhijian</text>
  <text x="142" y="218" font-family="Segoe UI, Microsoft YaHei UI, sans-serif" font-size="20" fill="#475467">大纲、Markdown 与脑图同步编辑</text>
  <circle cx="162" cy="282" r="6" fill="#111827"/>
  <text x="184" y="290" font-family="Segoe UI, Microsoft YaHei UI, sans-serif" font-size="22" fill="#0f172a">产品愿景</text>
  <circle cx="188" cy="338" r="5" fill="#111827"/>
  <text x="208" y="346" font-family="Segoe UI, Microsoft YaHei UI, sans-serif" font-size="18" fill="#0f172a">Markdown 默认存储</text>
  <circle cx="188" cy="392" r="5" fill="#111827"/>
  <text x="208" y="400" font-family="Segoe UI, Microsoft YaHei UI, sans-serif" font-size="18" fill="#0f172a">备注同步与拖拽整理</text>
  <rect x="548" y="310" width="96" height="58" rx="10" fill="#148bff"/>
  <text x="596" y="348" text-anchor="middle" font-family="Segoe UI, Microsoft YaHei UI, sans-serif" font-size="24" font-weight="800" fill="#ffffff">枝见</text>
  <path d="M644 339 C700 339 708 260 764 260" fill="none" stroke="#148bff" stroke-width="4"/>
  <rect x="764" y="230" width="142" height="60" rx="12" fill="#eef0f3"/>
  <text x="835" y="268" text-anchor="middle" font-family="Segoe UI, Microsoft YaHei UI, sans-serif" font-size="22" fill="#0f172a">产品愿景</text>
  <path d="M906 260 C954 260 966 220 1018 220" fill="none" stroke="#148bff" stroke-width="4"/>
  <text x="1030" y="228" font-family="Segoe UI, Microsoft YaHei UI, sans-serif" font-size="19" fill="#0f172a">OPML / XMind</text>
  <path d="M644 339 C704 339 714 420 764 420" fill="none" stroke="#148bff" stroke-width="4"/>
  <rect x="764" y="390" width="142" height="60" rx="12" fill="#eef0f3"/>
  <text x="835" y="428" text-anchor="middle" font-family="Segoe UI, Microsoft YaHei UI, sans-serif" font-size="22" fill="#0f172a">编辑体验</text>
  <path d="M906 420 C954 420 966 386 1018 386" fill="none" stroke="#148bff" stroke-width="4"/>
  <path d="M906 420 C954 420 966 454 1018 454" fill="none" stroke="#148bff" stroke-width="4"/>
  <text x="1030" y="394" font-family="Segoe UI, Microsoft YaHei UI, sans-serif" font-size="19" fill="#0f172a">大纲视图</text>
  <text x="1030" y="462" font-family="Segoe UI, Microsoft YaHei UI, sans-serif" font-size="19" fill="#0f172a">脑图视图</text>
  <text x="86" y="635" font-family="Segoe UI, Microsoft YaHei UI, sans-serif" font-size="22" font-weight="700" fill="#0f172a">Avalonia + AtomUI · Markdown-first mind map editor</text>
</svg>
