<svg xmlns="http://www.w3.org/2000/svg" width="1200" height="630" viewBox="0 0 1200 630" role="img" aria-labelledby="title desc">
  <title id="title">Microcontroller fundamentals cover</title>
  <desc id="desc">A circuit board themed cover for an introductory microcontroller article.</desc>
  <defs>
    <linearGradient id="bg" x1="0" y1="0" x2="1" y2="1">
      <stop offset="0" stop-color="#062a36"/>
      <stop offset="0.52" stop-color="#0d4b57"/>
      <stop offset="1" stop-color="#0a1f2b"/>
    </linearGradient>
    <linearGradient id="chip" x1="0" y1="0" x2="1" y2="1">
      <stop offset="0" stop-color="#1b6b79"/>
      <stop offset="1" stop-color="#0a2c38"/>
    </linearGradient>
    <pattern id="grid" width="42" height="42" patternUnits="userSpaceOnUse">
      <path d="M42 0H0V42" fill="none" stroke="#7dd3fc" stroke-opacity="0.1" stroke-width="1"/>
    </pattern>
    <filter id="soft" x="-20%" y="-20%" width="140%" height="140%">
      <feDropShadow dx="0" dy="18" stdDeviation="18" flood-color="#00151f" flood-opacity="0.35"/>
    </filter>
  </defs>
  <rect width="1200" height="630" fill="url(#bg)"/>
  <rect width="1200" height="630" fill="url(#grid)"/>
  <path d="M92 106H384M92 170H292M92 234H360M92 298H238M92 362H330" stroke="#67e8f9" stroke-width="4" stroke-linecap="round" stroke-opacity="0.65"/>
  <g fill="#67e8f9">
    <circle cx="384" cy="106" r="9"/>
    <circle cx="292" cy="170" r="9"/>
    <circle cx="360" cy="234" r="9"/>
    <circle cx="238" cy="298" r="9"/>
    <circle cx="330" cy="362" r="9"/>
  </g>
  <g transform="translate(608 110)" filter="url(#soft)">
    <rect x="0" y="0" width="392" height="392" rx="36" fill="url(#chip)" stroke="#9ff6ff" stroke-opacity="0.45" stroke-width="2"/>
    <rect x="78" y="78" width="236" height="236" rx="24" fill="#0d2430" stroke="#67e8f9" stroke-opacity="0.55" stroke-width="3"/>
    <path d="M128 156h136M128 198h136M128 240h94" stroke="#c7f9ff" stroke-width="12" stroke-linecap="round"/>
    <g fill="#a7f3d0">
      <circle cx="126" cy="116" r="10"/>
      <circle cx="266" cy="116" r="10"/>
      <circle cx="126" cy="278" r="10"/>
      <circle cx="266" cy="278" r="10"/>
    </g>
    <g stroke="#67e8f9" stroke-width="10" stroke-linecap="round">
      <path d="M-34 58H0M-34 118H0M-34 178H0M-34 238H0M-34 298H0M-34 358H0"/>
      <path d="M392 58h34M392 118h34M392 178h34M392 238h34M392 298h34M392 358h34"/>
      <path d="M58-34V0M118-34V0M178-34V0M238-34V0M298-34V0M358-34V0"/>
      <path d="M58 392v34M118 392v34M178 392v34M238 392v34M298 392v34M358 392v34"/>
    </g>
  </g>
  <g font-family="Segoe UI, Arial, sans-serif" fill="#ecfeff">
    <text x="92" y="478" font-size="32" font-weight="700" letter-spacing="4">HARDWARE NOTES</text>
    <text x="92" y="538" font-size="58" font-weight="800">Microcontroller</text>
    <text x="92" y="590" font-size="36" font-weight="600" fill="#a7f3d0">GPIO, UART, SPI, I2C basics</text>
  </g>
</svg>
