<svg xmlns="http://www.w3.org/2000/svg" width="1200" height="675" viewBox="0 0 1200 675" role="img" aria-labelledby="title desc">
  <title id="title">CodeWF.Toolbox project cover</title>
  <desc id="desc">Cover image for the modular Avalonia toolbox project.</desc>
  <defs>
    <linearGradient id="bg" x1="0" y1="0" x2="1" y2="1">
      <stop offset="0" stop-color="#081120"/>
      <stop offset="0.6" stop-color="#0f2740"/>
      <stop offset="1" stop-color="#0b4b63"/>
    </linearGradient>
    <linearGradient id="panel" x1="0" y1="0" x2="1" y2="1">
      <stop offset="0" stop-color="#11263c"/>
      <stop offset="1" stop-color="#0c1a2d"/>
    </linearGradient>
    <linearGradient id="accent" x1="0" y1="0" x2="1" y2="0">
      <stop offset="0" stop-color="#2dd4bf"/>
      <stop offset="1" stop-color="#38bdf8"/>
    </linearGradient>
    <pattern id="grid" width="48" height="48" patternUnits="userSpaceOnUse">
      <path d="M48 0H0V48" fill="none" stroke="#ffffff" stroke-opacity=".05" stroke-width="1"/>
    </pattern>
  </defs>
  <rect width="1200" height="675" fill="url(#bg)"/>
  <rect width="1200" height="675" fill="url(#grid)"/>

  <rect x="56" y="60" width="88" height="88" rx="20" fill="url(#accent)" opacity=".95"/>
  <path d="M78 99h44M78 116h24" stroke="#081120" stroke-width="9" stroke-linecap="round"/>

  <text x="172" y="104" fill="#f8fafc" font-family="Segoe UI, Arial, sans-serif" font-size="64" font-weight="700" letter-spacing="0">CodeWF.Toolbox</text>
  <text x="172" y="154" fill="#d7f8ff" font-family="Segoe UI, Arial, sans-serif" font-size="26" letter-spacing="0">Modular desktop toolbox built with Avalonia + Prism</text>
  <text x="172" y="194" fill="#b6e8f8" font-family="Segoe UI, Arial, sans-serif" font-size="20" letter-spacing="0">AI tools, format conversion, development helpers, XML translation management</text>

  <rect x="56" y="248" width="1088" height="360" rx="28" fill="url(#panel)" stroke="#72e2ff" stroke-opacity=".18"/>

  <rect x="82" y="280" width="248" height="296" rx="20" fill="#0e2235" stroke="#3f83f8" stroke-opacity=".35"/>
  <rect x="102" y="304" width="208" height="32" rx="8" fill="#102a43"/>
  <rect x="102" y="356" width="208" height="32" rx="8" fill="#102a43"/>
  <rect x="102" y="408" width="208" height="32" rx="8" fill="#102a43"/>
  <rect x="102" y="460" width="208" height="32" rx="8" fill="#102a43"/>
  <rect x="102" y="512" width="208" height="32" rx="8" fill="#102a43"/>
  <rect x="102" y="304" width="14" height="32" rx="7" fill="#2dd4bf"/>
  <rect x="102" y="356" width="14" height="32" rx="7" fill="#38bdf8"/>
  <rect x="102" y="408" width="14" height="32" rx="7" fill="#fbbf24"/>
  <rect x="102" y="460" width="14" height="32" rx="7" fill="#fb7185"/>
  <rect x="102" y="512" width="14" height="32" rx="7" fill="#a78bfa"/>
  <text x="132" y="326" fill="#eff6ff" font-family="Segoe UI, Arial, sans-serif" font-size="18">Dashboard</text>
  <text x="132" y="378" fill="#eff6ff" font-family="Segoe UI, Arial, sans-serif" font-size="18">AI</text>
  <text x="132" y="430" fill="#eff6ff" font-family="Segoe UI, Arial, sans-serif" font-size="18">Converter</text>
  <text x="132" y="482" fill="#eff6ff" font-family="Segoe UI, Arial, sans-serif" font-size="18">Development</text>
  <text x="132" y="534" fill="#eff6ff" font-family="Segoe UI, Arial, sans-serif" font-size="18">XML Manager</text>

  <g>
    <rect x="356" y="280" width="738" height="116" rx="18" fill="#0b1f31" stroke="#94a3b8" stroke-opacity=".14"/>
    <rect x="382" y="312" width="124" height="18" rx="9" fill="#38bdf8"/>
    <rect x="382" y="340" width="286" height="10" rx="5" fill="#334155"/>
    <rect x="382" y="360" width="214" height="10" rx="5" fill="#334155"/>
    <rect x="862" y="304" width="176" height="52" rx="14" fill="url(#accent)"/>
    <text x="900" y="337" fill="#081120" font-family="Segoe UI, Arial, sans-serif" font-size="18" font-weight="700">Open Tool</text>
  </g>

  <g>
    <rect x="356" y="418" width="228" height="158" rx="18" fill="#0b1f31" stroke="#94a3b8" stroke-opacity=".14"/>
    <rect x="382" y="446" width="74" height="12" rx="6" fill="#2dd4bf"/>
    <rect x="382" y="472" width="132" height="10" rx="5" fill="#334155"/>
    <rect x="382" y="492" width="104" height="10" rx="5" fill="#334155"/>
    <rect x="382" y="522" width="150" height="30" rx="10" fill="#12263a"/>
    <text x="402" y="543" fill="#e2e8f0" font-family="Segoe UI, Arial, sans-serif" font-size="15">AI</text>
  </g>

  <g>
    <rect x="604" y="418" width="228" height="158" rx="18" fill="#0b1f31" stroke="#94a3b8" stroke-opacity=".14"/>
    <rect x="630" y="446" width="100" height="12" rx="6" fill="#38bdf8"/>
    <rect x="630" y="472" width="134" height="10" rx="5" fill="#334155"/>
    <rect x="630" y="492" width="116" height="10" rx="5" fill="#334155"/>
    <rect x="630" y="522" width="150" height="30" rx="10" fill="#12263a"/>
    <text x="650" y="543" fill="#e2e8f0" font-family="Segoe UI, Arial, sans-serif" font-size="15">Converter</text>
  </g>

  <g>
    <rect x="852" y="418" width="242" height="158" rx="18" fill="#0b1f31" stroke="#94a3b8" stroke-opacity=".14"/>
    <rect x="878" y="446" width="116" height="12" rx="6" fill="#fbbf24"/>
    <rect x="878" y="472" width="150" height="10" rx="5" fill="#334155"/>
    <rect x="878" y="492" width="92" height="10" rx="5" fill="#334155"/>
    <rect x="878" y="522" width="168" height="30" rx="10" fill="#12263a"/>
    <text x="898" y="543" fill="#e2e8f0" font-family="Segoe UI, Arial, sans-serif" font-size="15">XML Manager</text>
  </g>
</svg>
